<?xml version="1.0" encoding="utf-8"?>
<!-- Generator: Adobe Illustrator 27.0.1, SVG Export Plug-In . SVG Version: 6.00 Build 0)  -->
<svg version="1.1" id="Camada_1" xmlns="http://www.w3.org/2000/svg" xmlns:xlink="http://www.w3.org/1999/xlink" x="0px" y="0px"
	 viewBox="0 0 1954 2103.7" style="enable-background:new 0 0 1954 2103.7;" xml:space="preserve">
<style type="text/css">
	.st0{fill:#EB1C24;}
	.st1{fill:#BD1A2F;}
	.st2{fill:#FFFFFF;}
</style>
<g>
	<g>
		<path class="st0" d="M281,1098.3c234.1,191.6,468.3,383.1,702.4,574.7c234.1-191.6,468.3-383.1,702.4-574.7
			c12.8,34.1,25.5,68.1,38.3,102.2c12.8-59.6,25.5-119.2,38.3-178.8c63.9,4.3,127.7,8.5,191.6,12.8
			c-76.6-132-153.3-263.9-229.9-395.9C1788,430,1851.9,208.6,1915.7,0c-302.3,212.9-630.1,438.5-932.3,651.3
			C664.1,434.2,370.4,217.1,51.1,0c63.9,212.9,127.7,425.7,191.6,638.6C161.8,783.3,80.9,928.1,0,1072.8
			c63.9-17,127.7-34.1,191.6-51.1c17,59.6,34.1,119.2,51.1,178.8C255.4,1170.7,268.2,1128.1,281,1098.3z"/>
		<path class="st1" d="M242.7,638.6c42.6-55.3,85.1-110.7,127.7-166C263.9,315,157.5,157.5,51.1,0
			C114.9,212.9,178.8,425.7,242.7,638.6z"/>
		<path class="st1" d="M1954,1034.5c-63.9-4.2-127.7-8.6-191.6-12.8c-12.8,59.6-25.5,119.2-38.3,178.8
			c-12.8-34.1-25.5-68.1-38.3-102.2c-234.1,191.6-468.3,383.1-702.4,574.7c-234.1-191.6-468.3-383.1-702.4-574.7
			c229.9,123.5,459.8,246.9,689.7,370.4c152.6-240.9,307-482.8,463.2-725.6C1594.6,493.3,1755.2,245.6,1915.7,0
			c-63.9,208.6-127.7,430-191.6,638.6C1800.8,770.5,1877.4,902.6,1954,1034.5z"/>
		<g>
			<path class="st2" d="M376.8,676.9c72.4,106.4,144.7,212.9,217.1,319.3c76.6-17,153.3-34.1,229.9-51.1
				C674.8,855.7,525.8,766.3,376.8,676.9z"/>
			<path class="st2" d="M1577.3,676.9c-72.4,106.4-144.7,212.9-217.1,319.3c-76.6-17-153.3-34.1-229.9-51.1
				C1279.3,855.7,1428.3,766.3,1577.3,676.9z"/>
		</g>
	</g>
	<g>
		<path class="st1" d="M179.8,1993.8l-21.7,104.3h-36.3C141.2,2063.4,160.5,2028.5,179.8,1993.8z"/>
		<path class="st0" d="M207.6,1865.3l-11,53.9h24.6c-11.7,21.1-23.4,42-35.1,63.1h-4l-2.4,11.5c-19.3,34.7-38.6,69.6-58,104.3H73
			l62.7-295.5H286c-11.5,20.9-23.1,41.8-34.9,62.7H207.6z"/>
		<path class="st0" d="M379.4,2025.3c35.1-63.2,70.2-126.4,105.4-189.7c-13.4-29.6-41.8-38.8-76.9-38.8c-54.8,0-96.4,22-122.2,143.4
			c-25.2,117.9,0.6,154.4,51.1,161.8c11.2-20.2,22.5-40.4,33.7-60.5c-1.5,0.9-3.2,1.3-5.1,1.3c-11.4,0-12.3-8.7,6.6-97.3
			c17.1-79.8,21.5-87.7,31.2-87.7c11,0,12.3,6.6-5.2,88.6C389.2,1987.8,383.9,2011.6,379.4,2025.3z"/>
		<path class="st0" d="M648.6,1929l-8.3,15.6l0.1,1.4c-22.6,47.3-45.1,94.6-67.7,141.9l2.7-78.4h-2.7l-29.4,88.6h-86.8l13.5-25.8
			l62.8-119.8l-12.8-149.9h83.8l-3.6,83.8h3.6l26.3-83.8H709C688.8,1844.7,668.7,1886.9,648.6,1929z"/>
		<path class="st0" d="M885.8,1896.4c5.2-26.3,7.4-39.1-4.3-39.1c-10.6,0-15.8,11.9-33.3,89.4c-15.8,69.3-18,93.9-4.5,93.9
			c10.6,0,14.9-11.4,19.3-32.1l5.4-24.5h-15.5l13.2-59.1h78.3c-25.3,52.9-50.4,105.7-75.7,158.6c0.3-3.8,0.6-7.5,1-10
			c-14.9,21.5-29.4,30.1-58.7,30.1c-54.4,0-73.7-46-49.2-160c25-117.5,61.4-146.9,124.1-146.9c59.6,0,83.9,29.5,86,70.8
			c-4.7,9.6-9.3,19.3-13.8,28.9H885.8z"/>
		<path class="st0" d="M1055,1802.6l-53.9,151.5l-51.3,144.1h87.2l16.6-58.4h29l-6.1,58.4h40.5c17.5-36.4,34.9-72.9,52.2-109.3
			l12.5-186.2H1055z M1088.2,1976.6h-13.5c8.8-37.3,21.1-86,27.2-111h2.7C1101.4,1888,1094.5,1940.6,1088.2,1976.6z"/>
		<path class="st0" d="M1496.4,1802.6l-23.9,112.6c-29.1,60.9-58.2,122-87.4,182.9h-30.8l15.8-73.3c8.3-39.3,22.7-106,31.9-144.7
			h-3.4c-20.7,69.7-53.1,179.8-65.4,218h-60c7-56.6,20.2-154.8,28.1-218.4h-3.6c-6.5,35.1-17.1,92.1-28.1,143.4l-15.7,75h-72.8
			l51.3-241.9l11.4-53.6h111.8c-3.1,29.4-11.8,100.9-17.5,137.2h3.1c14.9-47.8,23.6-80.2,42.1-137.2H1496.4z"/>
		<path class="st0" d="M1681.3,1802.6c-6.9,14.6-13.9,29-20.8,43.6c-3.1,6.5-6.3,13-9.3,19.5h-49.9l-10.6,49.2h37.2
			c-4.2,8.7-8.4,17.4-12.5,26.1c-5.9,12.4-11.9,24.6-17.8,37h-20.1l-12.3,57.5h4.9c-10,20.9-19.9,41.8-30,62.7h-72.7l62.7-295.5
			H1681.3z"/>
		<path class="st0" d="M1803.3,1893.8c5.6-27.6,4.3-39.5-5.7-39.5c-7,0-11.9,4.3-14,18.4c-2.2,13.7,2.7,22.4,27.7,44.3
			c8,7.2,15.2,13.8,21.2,20.3c-26.6,55.4-53,111-79.6,166.4c-70.4-0.4-94.3-39.7-80.7-101.7h80.3c-6.6,30.3-4.9,44.3,5.2,44.3
			c10.5,0,13.5-9.2,15.7-22c3.6-19.3-3.1-31.5-28.5-53.5c-34.6-29.8-52.6-51.3-42.5-102.2c7.9-39,33.3-71.9,93.4-71.9
			c44.6,0,72.7,15.5,81.9,45.7c-8.2,17.1-16.3,34.1-24.4,51.2H1803.3z"/>
		<path class="st1" d="M267.6,1919.2l-13.2,63.1h-68.3c11.7-21.1,23.4-42,35.1-63.1H267.6z"/>
		<path class="st1" d="M298.8,1802.6l-13.5,62.7h-34.1c11.7-20.9,23.4-41.8,34.9-62.7H298.8z"/>
		<path class="st1" d="M484.6,1952.1c-28,128.4-61.8,151.6-123.6,151.6c-8.6,0-16.7-0.5-24.3-1.7c11.2-20.2,22.5-40.4,33.7-60.5
			c2.9-1.9,5.7-6.5,8.9-16.2c35.1-63.2,70.2-126.4,105.4-189.7C495.6,1859.4,497,1896.3,484.6,1952.1z"/>
		<path class="st0" d="M370.4,2041.5c2.9-5.4,5.9-10.9,8.9-16.2C376.2,2035,373.4,2039.6,370.4,2041.5z"/>
		<path class="st1" d="M657.4,2098.1h-85.1l0.4-10.2c22.6-47.3,45.1-94.6,67.7-141.9L657.4,2098.1z"/>
		<path class="st0" d="M715.7,1802.6L648.6,1929c20.1-42.1,40.2-84.3,60.4-126.4H715.7z"/>
		<path class="st1" d="M971.7,1867.6c0.5,9.1-0.3,18.8-1.8,28.9h-12C962.4,1886.9,967,1877.2,971.7,1867.6z"/>
		<path class="st1" d="M964.7,1924.9l-36.9,173.2h-59.5c-0.5-2.2-0.3-8.4,0.3-14.6c25.3-52.9,50.4-105.7,75.7-158.6H964.7z"/>
		<path class="st1" d="M1169.2,1988.8l-7.3,109.3h-45C1134.4,2061.7,1151.8,2025.2,1169.2,1988.8z"/>
		<path class="st1" d="M1472.5,1915.2l-38.7,182.9h-48.7C1414.3,2037.2,1443.4,1976.1,1472.5,1915.2z"/>
		<path class="st1" d="M1857.2,2030.5c-10.1,46.5-39.8,73.2-103.5,73.2h-0.9c26.6-55.4,53-111,79.6-166.4
			C1858.3,1965,1866.1,1989.7,1857.2,2030.5z"/>
		<path class="st1" d="M1878.2,1893.8h-25c8-17.1,16.2-34.1,24.4-51.2C1881.9,1856.5,1882.2,1873.6,1878.2,1893.8z"/>
		<path class="st1" d="M1653,2035.4l-19.8,62.7h-93.1c10.1-20.9,20.1-41.8,30-62.7H1653z"/>
		<path class="st1" d="M1663.8,1914.8l-13.2,63.1h-53.1c5.9-12.4,11.9-24.6,17.8-37c4.1-8.7,8.3-17.4,12.5-26.1H1663.8z"/>
		<path class="st1" d="M1691.5,1802.6l-13.7,63.1h-26.7c3.1-6.5,6.3-13,9.3-19.5c6.9-14.6,13.9-29,20.8-43.6H1691.5z"/>
	</g>
</g>
</svg>
